<?xml version="1.0" encoding="utf-8"?>
<!-- Generator: Adobe Illustrator 15.1.0, SVG Export Plug-In . SVG Version: 6.00 Build 0)  -->
<!DOCTYPE svg PUBLIC "-//W3C//DTD SVG 1.1//EN" "http://www.w3.org/Graphics/SVG/1.1/DTD/svg11.dtd">
<svg version="1.1" xmlns="http://www.w3.org/2000/svg" xmlns:xlink="http://www.w3.org/1999/xlink" x="0px" y="0px" width="400px"
	 height="600px" viewBox="0 0 400 600" style="enable-background:new 0 0 400 600;" xml:space="preserve">
<style type="text/css">
<![CDATA[
	.st0{fill:#B32424;}
	.st1{fill:#59656A;}
	.st2{fill:#F03800;}
	.st3{fill:#FFFFFF;}
	.st4{fill:#3F3F3F;}
	.st5{fill:#DDDDDD;}
	.st6{fill:#24B337;}
]]>
</style>
<g id="Sprite_Extents">
</g>
<g id="Sprites">
	<g id="Apigee_Logo">
		<path class="st3" d="M10.979,13.704c0,0.761,0,1.935-1.42,1.935c-0.864,0-1.214-0.474-1.419-1.256
			c-0.762,0.905-1.688,1.379-2.819,1.379c-2.777,0-4.897-2.367-4.897-5.7c0-3.251,2.181-5.741,4.897-5.741
			c1.091,0,2.161,0.432,2.819,1.358c0.083-0.72,0.699-1.235,1.419-1.235c1.42,0,1.42,1.173,1.42,1.934V13.704z M5.732,13.045
			c1.543,0,2.284-1.563,2.284-2.983c0-1.42-0.721-3.025-2.284-3.025c-1.626,0-2.346,1.605-2.346,3.025
			C3.386,11.481,4.127,13.045,5.732,13.045z"/>
		<path class="st3" d="M11.814,6.091c0-0.988,0.617-1.646,1.481-1.646c0.823,0,1.296,0.453,1.481,1.235
			c0.556-0.906,1.708-1.358,2.819-1.358c3.189,0,4.773,2.983,4.773,5.865c0,2.798-1.893,5.576-4.876,5.576
			c-0.926,0-1.934-0.35-2.716-1.029v3.621c0,0.988-0.617,1.646-1.481,1.646s-1.481-0.659-1.481-1.646V6.091z M17.102,13.045
			c1.543,0,2.305-1.605,2.305-2.983c0-1.399-0.761-3.025-2.305-3.025c-1.584,0-2.325,1.481-2.325,2.922
			C14.777,11.399,15.477,13.045,17.102,13.045z"/>
		<path class="st3" d="M26.217,1.625c0,0.926-0.74,1.708-1.667,1.708c-0.884,0-1.666-0.802-1.666-1.708
			C22.884,0.782,23.666,0,24.55,0C25.436,0,26.217,0.761,26.217,1.625z M23.069,6.091c0-0.988,0.617-1.646,1.481-1.646
			c0.865,0,1.482,0.659,1.482,1.646v7.901c0,0.988-0.617,1.646-1.482,1.646c-0.864,0-1.481-0.659-1.481-1.646V6.091z"/>
		<path class="st3" d="M37.287,14.65c0,3.56-2.325,5.35-5.699,5.35c-1.214,0-4.671-0.597-4.671-2.223
			c0-0.555,0.618-1.296,1.193-1.296c0.947,0,1.996,0.926,3.704,0.926c1.44,0,2.51-0.843,2.51-2.345v-0.7h-0.042
			c-0.617,0.905-1.625,1.4-2.983,1.4c-3.107,0-4.568-2.737-4.568-5.679c0-2.984,1.893-5.762,4.876-5.762
			c1.008,0,2.161,0.453,2.716,1.358c0.185-0.782,0.658-1.235,1.481-1.235c0.865,0,1.482,0.659,1.482,1.646V14.65z M31.999,7.037
			c-1.543,0-2.305,1.605-2.305,2.983c0,1.584,0.762,3.024,2.305,3.024c1.584,0,2.325-1.481,2.325-2.921S33.625,7.037,31.999,7.037z"
			/>
		<path class="st3" d="M40.847,11.029c0.206,1.461,1.42,2.14,2.798,2.14c1.523,0,2.573-1.193,3.354-1.193
			c0.638,0,1.214,0.638,1.214,1.275c0,1.276-2.634,2.511-4.836,2.511c-3.333,0-5.555-2.429-5.555-5.7
			c0-3.004,2.181-5.741,5.309-5.741c3.21,0,5.329,2.922,5.329,5.391c0,0.885-0.391,1.317-1.296,1.317H40.847z M45.497,9.054
			C45.333,7.757,44.509,6.79,43.13,6.79c-1.316,0-2.202,1.008-2.345,2.264H45.497z"/>
		<path class="st3" d="M51.964,11.067c0.206,1.461,1.419,2.14,2.798,2.14c1.523,0,2.572-1.193,3.354-1.193
			c0.638,0,1.214,0.638,1.214,1.275c0,1.276-2.634,2.511-4.836,2.511c-3.333,0-5.555-2.429-5.555-5.7
			c0-3.004,2.181-5.741,5.309-5.741c3.21,0,5.329,2.922,5.329,5.392c0,0.885-0.391,1.316-1.296,1.316H51.964z M56.614,9.092
			c-0.164-1.296-0.988-2.264-2.366-2.264c-1.317,0-2.202,1.008-2.345,2.264H56.614z"/>
	</g>
	<g id="Apigee_Logo_Grey">
		<path class="st5" d="M10.979,43.704c0,0.761,0,1.935-1.42,1.935c-0.864,0-1.214-0.474-1.419-1.256
			c-0.762,0.905-1.688,1.379-2.819,1.379c-2.777,0-4.897-2.367-4.897-5.7c0-3.251,2.181-5.741,4.897-5.741
			c1.091,0,2.161,0.432,2.819,1.358c0.083-0.72,0.699-1.235,1.419-1.235c1.42,0,1.42,1.173,1.42,1.934V43.704z M5.732,43.045
			c1.543,0,2.284-1.563,2.284-2.983c0-1.42-0.721-3.025-2.284-3.025c-1.626,0-2.346,1.605-2.346,3.025
			C3.386,41.481,4.127,43.045,5.732,43.045z"/>
		<path class="st5" d="M11.814,36.091c0-0.988,0.617-1.646,1.481-1.646c0.823,0,1.296,0.453,1.481,1.235
			c0.556-0.906,1.708-1.358,2.819-1.358c3.189,0,4.773,2.983,4.773,5.865c0,2.798-1.893,5.576-4.876,5.576
			c-0.926,0-1.934-0.35-2.716-1.029v3.621c0,0.988-0.617,1.646-1.481,1.646s-1.481-0.659-1.481-1.646V36.091z M17.102,43.045
			c1.543,0,2.305-1.605,2.305-2.983c0-1.399-0.761-3.025-2.305-3.025c-1.584,0-2.325,1.481-2.325,2.922
			C14.777,41.399,15.477,43.045,17.102,43.045z"/>
		<path class="st5" d="M26.217,31.625c0,0.926-0.74,1.708-1.667,1.708c-0.884,0-1.666-0.802-1.666-1.708
			c0-0.844,0.782-1.625,1.666-1.625C25.436,30,26.217,30.761,26.217,31.625z M23.069,36.091c0-0.988,0.617-1.646,1.481-1.646
			c0.865,0,1.482,0.659,1.482,1.646v7.901c0,0.988-0.617,1.646-1.482,1.646c-0.864,0-1.481-0.659-1.481-1.646V36.091z"/>
		<path class="st5" d="M37.287,44.65c0,3.56-2.325,5.35-5.699,5.35c-1.214,0-4.671-0.597-4.671-2.223
			c0-0.555,0.618-1.296,1.193-1.296c0.947,0,1.996,0.926,3.704,0.926c1.44,0,2.51-0.843,2.51-2.345v-0.7h-0.042
			c-0.617,0.905-1.625,1.4-2.983,1.4c-3.107,0-4.568-2.737-4.568-5.679c0-2.984,1.893-5.762,4.876-5.762
			c1.008,0,2.161,0.453,2.716,1.358c0.185-0.782,0.658-1.235,1.481-1.235c0.865,0,1.482,0.659,1.482,1.646V44.65z M31.999,37.037
			c-1.543,0-2.305,1.605-2.305,2.983c0,1.584,0.762,3.024,2.305,3.024c1.584,0,2.325-1.481,2.325-2.921S33.625,37.037,31.999,37.037
			z"/>
		<path class="st5" d="M40.847,41.029c0.206,1.461,1.42,2.14,2.798,2.14c1.523,0,2.573-1.193,3.354-1.193
			c0.638,0,1.214,0.638,1.214,1.275c0,1.276-2.634,2.511-4.836,2.511c-3.333,0-5.555-2.429-5.555-5.7
			c0-3.004,2.181-5.741,5.309-5.741c3.21,0,5.329,2.922,5.329,5.391c0,0.885-0.391,1.317-1.296,1.317H40.847z M45.497,39.054
			c-0.164-1.297-0.988-2.264-2.366-2.264c-1.316,0-2.202,1.008-2.345,2.264H45.497z"/>
		<path class="st5" d="M51.964,41.067c0.206,1.461,1.419,2.14,2.798,2.14c1.523,0,2.572-1.193,3.354-1.193
			c0.638,0,1.214,0.638,1.214,1.275c0,1.276-2.634,2.511-4.836,2.511c-3.333,0-5.555-2.429-5.555-5.7
			c0-3.004,2.181-5.741,5.309-5.741c3.21,0,5.329,2.922,5.329,5.392c0,0.885-0.391,1.316-1.296,1.316H51.964z M56.614,39.092
			c-0.164-1.296-0.988-2.264-2.366-2.264c-1.317,0-2.202,1.008-2.345,2.264H56.614z"/>
	</g>
	<polygon id="Apigee_Arrow_Grey" class="st4" points="100,10 110,0 120,10 	"/>
	<polygon id="Apigee_Arrow" class="st2" points="90,0 80,10 70,0 	"/>
	<g id="Delete">
		<circle class="st1" cx="77.5" cy="27.5" r="7.5"/>
		<polygon class="st3" points="81.711,25.253 79.747,23.289 77.5,25.536 75.253,23.289 73.289,25.253 75.536,27.5 73.289,29.747 
			75.253,31.711 77.5,29.464 79.747,31.711 81.711,29.747 79.464,27.5 		"/>
	</g>
	<g id="Delete_2_">
		<circle class="st0" cx="97.5" cy="27.5" r="7.5"/>
		<polygon class="st3" points="101.711,25.253 99.747,23.289 97.5,25.536 95.253,23.289 93.289,25.253 95.536,27.5 93.289,29.747 
			95.253,31.711 97.5,29.464 99.747,31.711 101.711,29.747 99.464,27.5 		"/>
	</g>
	<g id="Check">
    	<circle class="st6" cx="117.5" cy="27.5" r="7.5"/>
    	<polygon class="st3" points="122.827,25.253 120.863,23.289 116.384,27.768 114.137,25.521 112.173,27.484 116.369,31.711"/>
    </g>
	<g id="Facebook">
	</g>
</g>
<g id="Slices">
</g>
</svg>
